<svg xmlns="http://www.w3.org/2000/svg" id="Capa_1" enable-background="new 0 0 512.508 512.508" height="512" viewBox="0 0 512.508 512.508" width="512"><path d="m449.807 133.038c1.763-3.138 2.961-6.638 3.445-10.37 1.602-12.349-4.728-24.226-15.787-29.74-1.65-7.752-5.78-14.48-11.454-19.42-.457-7.513-3.839-14.653-9.5-19.761 1.026-16.72-9.831-32.004-26.046-36.511-16.218-4.51-33.403 2.985-41.151 17.837-4.94.96-9.446 3.198-13.165 6.352-2.74-5.612-7.248-10.327-13.044-13.22-3.489-16.386-18.042-28.205-34.872-28.205s-31.383 11.818-34.872 28.204c-.281.14-.546.302-.821.45-.492-.594-.975-1.143-1.47-1.664-11.607-12.188-30.201-14.575-44.473-5.802-11.619-4.204-24.585-.598-32.424 9.079-1.484 1.833-2.714 3.859-3.693 6.005-1.386-.502-2.814-.914-4.286-1.2-7.748-14.853-24.936-22.342-41.15-17.836-16.216 4.507-27.073 19.791-26.046 36.511-5.661 5.107-9.042 12.248-9.5 19.761-5.674 4.94-9.804 11.667-11.454 19.42-11.059 5.515-17.389 17.391-15.787 29.74.472 3.635 1.625 7.048 3.313 10.123-10.475.041-18.985 8.572-18.985 19.056v16.581c0 10.51 8.55 19.06 19.06 19.06h3.956l19.734 205.75c.372 3.879 3.637 6.784 7.457 6.784.239 0 .481-.011.725-.035 4.123-.396 7.145-4.059 6.75-8.182l-19.599-204.318h55.057l3.106 53.199c.233 3.986 3.538 7.063 7.48 7.063.147 0 .295-.004.444-.013 4.135-.241 7.292-3.79 7.05-7.924l-3.055-52.325h56.667l6.198 310.021h-44.767l-13.178-225.734c-.242-4.135-3.795-7.3-7.924-7.05-4.135.241-7.292 3.789-7.05 7.924l13.127 224.86h-25.048c-10.474 0-19.125-7.862-20.125-18.287l-5.333-55.6c-.396-4.123-4.057-7.152-8.182-6.75-4.124.396-7.146 4.059-6.75 8.182l5.333 55.6c1.742 18.16 16.813 31.855 35.057 31.855h246.959c18.244 0 33.315-13.695 35.057-31.855l18.562-193.522c.396-4.123-2.626-7.786-6.75-8.182-4.119-.403-7.787 2.626-8.182 6.75l-18.562 193.522c-1 10.426-9.652 18.288-20.125 18.288h-25.048l18.097-310.021h55.057l-6.363 66.349c-.396 4.123 2.626 7.786 6.75 8.182.243.023.485.035.725.035 3.819 0 7.085-2.905 7.457-6.785l6.501-67.78h3.956c10.51 0 19.06-8.55 19.06-19.06v-16.581c0-9.508-7.004-17.389-16.119-18.81zm-267.919-65.351c6.24-7.649 17.087-9.797 25.791-5.108 8.705 4.689 12.878 14.929 9.922 24.347-.703 2.239-.771 4.609-.287 6.879-3.078-3.11-6.705-5.668-10.77-7.476-15.377-6.839-33.478-1.956-43.324 11.598-.467.021-.926.073-1.388.116-.079-.054-.165-.103-.243-.158-5.024-3.599-7.07-10.399-4.865-16.17 2.187-5.721 7.735-9.355 13.798-9.047 4.386.224 8.639-1.638 11.366-4.981zm75.866 12.036c9.888 0 18.418 7.036 20.282 16.729.815 4.236 3.672 7.89 7.642 9.775h.001c5.488 2.604 8.646 8.435 7.858 14.51-.794 6.126-5.821 11.142-11.952 11.928-5.358.684-10.526-1.665-13.491-6.133-2.277-3.433-6.13-5.48-10.356-5.48h-.015c-4.178 0-8.032 2.048-10.309 5.48-2.965 4.47-8.136 6.821-13.492 6.133-6.131-.785-11.157-5.801-11.952-11.928-.788-6.075 2.37-11.906 7.859-14.51 3.97-1.885 6.827-5.539 7.642-9.775 1.865-9.693 10.395-16.729 20.283-16.729zm75.866-12.036c2.727 3.344 6.978 5.204 11.364 4.98 6.071-.309 11.613 3.326 13.8 9.047 2.206 5.77.16 12.57-4.863 16.168-.078.056-.164.105-.244.159-.462-.042-.921-.095-1.389-.116-9.846-13.553-27.947-18.44-43.324-11.598-4.058 1.805-7.689 4.347-10.764 7.449.478-2.262.407-4.622-.293-6.852-2.956-9.419 1.217-19.659 9.922-24.348 8.706-4.686 19.552-2.54 25.791 5.111zm-181.75 65.1c-1.449-3.063-1.758-6.556-.786-9.82 1.749-5.871 7.004-9.916 13.078-10.065 4.395-.108 8.49-2.286 10.956-5.825 5.642-8.1 16.295-11.061 25.331-7.043 3.579 1.592 6.593 4.172 8.746 7.406-1.999 4.675-2.789 9.905-2.098 15.226.471 3.635 1.62 7.048 3.309 10.12h-58.536zm154.444-25.347c2.154-3.235 5.167-5.814 8.746-7.406 9.036-4.016 19.688-1.056 25.33 7.043 2.466 3.54 6.562 5.717 10.957 5.825 6.072.149 11.328 4.194 13.077 10.064.973 3.264.663 6.757-.786 9.82h-58.539c1.69-3.073 2.842-6.484 3.314-10.12.69-5.321-.099-10.551-2.099-15.226zm124.204-1.212c5.489 2.604 8.647 8.436 7.86 14.51-.795 6.126-5.821 11.142-11.952 11.928-5.353.682-10.526-1.664-13.492-6.135-2.278-3.431-6.131-5.479-10.355-5.479h-.015c-4.179 0-8.032 2.048-10.31 5.48-2.355 3.55-6.102 5.76-10.226 6.176-.021.027-.045.052-.066.079h-2.607c.979-4.623.827-9.467-.554-14.103-1.163-3.904-3.092-7.406-5.578-10.384h.003c-.228-.273-.453-.548-.691-.812.673-.482 1.387-.905 2.135-1.26 3.97-1.884 6.827-5.538 7.643-9.775 1.864-9.694 10.394-16.729 20.282-16.729s18.418 7.036 20.282 16.729c.814 4.236 3.671 7.89 7.641 9.775zm-78.071-56.481c4.33-.752 8.061-3.508 9.98-7.371 4.393-8.841 14.497-13.334 24.021-10.688 9.527 2.647 15.861 11.71 15.062 21.549-.35 4.301 1.425 8.587 4.746 11.465.089.077.164.166.251.245-1.289-.142-2.593-.223-3.914-.223-11.699 0-22.294 5.714-28.84 14.698-.267-1.028-.572-2.052-.958-3.063-4.446-11.631-15.622-19.087-28.003-18.695-.524-.617-1.071-1.206-1.629-1.78 2.086-3.191 5.425-5.467 9.284-6.137zm-92.139-8.243c3.971-1.885 6.828-5.539 7.642-9.775 1.865-9.693 10.395-16.729 20.283-16.729s18.418 7.036 20.282 16.729c.814 4.237 3.672 7.891 7.644 9.775 1.929.915 3.558 2.215 4.835 3.775-6.832-.651-13.89.651-20.278 4.092-9.9 5.333-16.399 14.831-18.222 25.343-6.468-6.226-15.241-9.992-24.74-9.992-.162 0-.323.008-.485.011-2.617-2.23-4.384-5.359-4.82-8.719-.788-6.074 2.371-11.906 7.859-14.51zm-58.553-6.113c4.104 1.577 8.72 1.127 12.35-1.206 8.307-5.335 19.284-4.01 26.103 3.15.14.147.282.302.425.466.025.054.05.108.076.162.216.449.483.854.772 1.238-3.293 5.483-4.776 12.039-3.907 18.743.503 3.874 1.783 7.538 3.715 10.821-3.032 1.583-5.82 3.588-8.275 5.951-1.821-10.512-8.32-20.01-18.221-25.343-9.493-5.115-20.462-5.507-29.972-1.775-.52-.788-1.069-1.555-1.661-2.286.46-2.061 1.365-3.993 2.67-5.604 3.855-4.761 10.256-6.497 15.925-4.317zm-92.505 29.311c3.322-2.879 5.097-7.165 4.748-11.465-.799-9.839 5.535-18.902 15.062-21.549 9.525-2.647 19.629 1.847 24.021 10.688 1.919 3.863 5.651 6.619 9.981 7.372 3.858.67 7.197 2.946 9.283 6.136-.558.574-1.105 1.162-1.629 1.78-12.351-.39-23.557 7.063-28.003 18.695-.387 1.011-.69 2.036-.957 3.065-6.547-8.985-17.141-14.7-28.84-14.7-1.324 0-2.631.081-3.922.224.087-.081.166-.168.256-.246zm-24.26 41.526c3.971-1.885 6.828-5.539 7.643-9.775 1.864-9.694 10.395-16.729 20.282-16.729 9.888 0 18.417 7.036 20.282 16.731.815 4.236 3.672 7.889 7.643 9.773.747.354 1.461.777 2.134 1.26-.055.062-.106.127-.161.189.005 0 .01.001.015.001-2.748 3.108-4.874 6.826-6.12 11.007-1.375 4.617-1.531 9.439-.565 14.045-5.142.44-10.034-1.897-12.888-6.197-2.277-3.433-6.13-5.48-10.356-5.48h-.015c-4.178 0-8.032 2.048-10.309 5.48-2.966 4.47-8.136 6.817-13.492 6.134-6.13-.786-11.157-5.802-11.952-11.928-.788-6.076 2.37-11.907 7.859-14.511zm141.431 81.259h59.666l-6.198 310.021h-47.27zm113.239 310.021h-44.768l6.198-310.021h56.667zm111.266-329.081c0 2.239-1.821 4.06-4.06 4.06h-381.223c-2.239 0-4.06-1.821-4.06-4.06v-16.581c0-2.238 1.821-4.06 4.06-4.06h381.223c2.239 0 4.06 1.821 4.06 4.06z"></path></svg>